<?xml version="1.0" encoding="utf-8"?>
<!-- Generator: Adobe Illustrator 24.0.0, SVG Export Plug-In . SVG Version: 6.00 Build 0)  -->
<svg version="1.1" xmlns="http://www.w3.org/2000/svg" xmlns:xlink="http://www.w3.org/1999/xlink" x="0px" y="0px"
	 viewBox="0 0 2237 2237" style="enable-background:new 0 0 2237 2237;" xml:space="preserve">
<style type="text/css">
	.st0{opacity:0;fill-rule:evenodd;clip-rule:evenodd;fill:#FFFFFF;}
	.st1{fill-rule:evenodd;clip-rule:evenodd;fill:#FFFFFF;}
	.st2{fill-rule:evenodd;clip-rule:evenodd;}
</style>
<g id="Bg">
	<rect class="st0" width="2237" height="2237"/>
</g>
<g id="Layer_1_15_">
	<rect x="32.08" y="32.08" class="st1" width="2172.83" height="2172.83"/>
	<g>
		<circle class="st2" cx="1118.5" cy="1118.5" r="859.11"/>
		<path class="st1" d="M1223.88,978.24c-20.67,13.72-41.18,27.65-61.63,41.78c-38.22,26.41-76.71,54.11-115.98,79.62
			c-35.9,23.31-69.64,49.75-105.47,73.16c-38.6,25.25-86.2,51.89-133.77,37.85c-67.38-19.92-120.01-28.24-169.41-47.66
			c-49.42-19.4-31.78-52.94,5.28-70.58c37.07-17.65,446.48-194.14,446.48-194.14l255.88-105.87c22.22-8.67,44.39-17.38,66.57-26.16
			c14.94-5.91,29.63-12.55,45.34-16.13c17.79-4.06,39.03-5.93,55.1,4.46c23.02,14.87,22.99,47.29,20.05,71.36
			c-5.7,46.92-12.74,93.71-19.69,140.46c-9.2,61.81-18.73,123.6-28.36,185.35c-8.55,54.82-17.2,109.61-25.93,164.39
			c-6.29,39.53-9.27,80.3-17.66,119.4c-3.8,17.68-9.6,35.48-19.67,50.66c-42.2,63.58-121.32,6.85-164.61-24.95
			c-35.67-26.22-186.79-123.96-224.22-150.17c-13.36-9.37-23.81-25.72-23.67-42.28c0.2-22.82,16.41-40.08,32.15-54.66
			c19.33-17.92,39.3-35.16,58.49-53.26c28.8-27.16,57.6-54.33,86.41-81.5c24.73-23.32,49.46-46.64,74.18-69.97
			c13.66-12.87,26.63-26.24,38.72-40.64c3.64-4.33,6.17-7.77,6.59-13.46c0.28-4.06-0.53-8.06-3.6-10.96
			c-11.36-10.67-25.47-0.09-35.66,6.47C1251.77,959.86,1237.81,969,1223.88,978.24z"/>
	</g>
</g>
</svg>
